# xmcd
#
# Track frame offsets:
#	150
#	20262
#	41262
#	57447
#	81115
#	103547
#	119512
#	136997
#	150150
#	160340
#	182017
#	211240
#
# Disc length: 3038 seconds
#
# Revision: 2
# Processed by: cddbd v1.4PL0 Copyright (c) Steve Scherf et al.
# Submitted via: audiograbber 1.80.04
#
DISCID=900bdc0c
DTITLE=Taz - Poor On Payday
DYEAR=1992
DGENRE=Blues
TTITLE0=Sugar Baby
TTITLE1=Share Our Love
TTITLE2=Good News
TTITLE3=Played A Fool
TTITLE4=Poor On Payday
TTITLE5=Short Women
TTITLE6=Won't Be Around
TTITLE7=Pot Luck
TTITLE8=Back To The Blues
TTITLE9=Trust
TTITLE10=Hollow Shell
TTITLE11=It's Time We Make A Change
EXTD=
EXTT0=
EXTT1=
EXTT2=
EXTT3=
EXTT4=
EXTT5=
EXTT6=
EXTT7=
EXTT8=
EXTT9=
EXTT10=
EXTT11=
PLAYORDER=
